<svg width="329" height="335" viewBox="0 0 329 335" fill="none" xmlns="http://www.w3.org/2000/svg">
<path d="M12.6059 179.23L12.5971 179.233L12.5883 179.236C8.86037 180.367 5.73065 182.931 3.88448 186.366C2.04016 189.798 1.62709 193.82 2.73509 197.555C2.7362 197.558 2.73731 197.562 2.73842 197.566L13.8907 233.655L13.8938 233.665L13.8967 233.675C14.4391 235.497 15.3391 237.193 16.5439 238.662C17.7487 240.132 19.2342 241.346 20.9134 242.234C22.5926 243.121 24.4318 243.665 26.3235 243.832C28.2153 244 30.1215 243.788 31.9309 243.21L31.9366 243.208L118.192 215.905L121.301 214.921L120.769 218.138L105.918 307.963C105.419 312.119 106.469 316.314 108.866 319.743C111.26 323.166 114.828 325.587 118.89 326.543L156.16 332.705C160.024 333.344 164.003 332.053 167.242 329.484C170.484 326.913 172.837 323.171 173.497 319.179L188.456 228.706L188.98 225.534L191.594 227.407L265.993 280.706L265.994 280.707C267.545 281.82 269.301 282.614 271.161 283.045C273.02 283.476 274.947 283.535 276.829 283.218C278.712 282.901 280.513 282.214 282.13 281.197C283.747 280.18 285.148 278.854 286.251 277.293L286.258 277.284L308.307 246.475C308.307 246.474 308.308 246.473 308.309 246.472C310.558 243.299 311.464 239.366 310.831 235.529C310.198 231.692 308.076 228.262 304.929 225.985C304.928 225.984 304.927 225.983 304.925 225.982L242.063 180.904L238.806 178.568L242.631 177.37L316.397 154.26C316.398 154.259 316.4 154.259 316.401 154.258C320.089 153.081 323.167 150.497 324.968 147.065C326.769 143.634 327.15 139.633 326.027 135.925C326.026 135.922 326.026 135.92 326.025 135.918L314.784 99.8371L314.783 99.8323C314.216 97.9963 313.292 96.2908 312.064 94.814C310.836 93.3372 309.329 92.1181 307.629 91.2267C305.929 90.3353 304.069 89.7892 302.157 89.6197C300.246 89.4503 298.319 89.6608 296.488 90.2393L296.488 90.2395L209.797 117.612L206.69 118.593L207.221 115.378L222.09 25.4455C222.369 23.5517 222.273 21.6215 221.807 19.7652C221.339 17.9037 220.509 16.1532 219.364 14.614C218.219 13.0748 216.782 11.7772 215.135 10.7956C213.489 9.81402 211.664 9.16764 209.767 8.89353L209.747 8.89061L209.727 8.88729L172.557 2.74182C164.342 1.38361 155.959 6.49507 154.672 14.2814L139.722 104.699L139.197 107.879L136.581 105.997L62.622 52.7702L62.6115 52.7625C61.0938 51.6551 59.369 50.8648 57.5398 50.4385C55.7106 50.0121 53.8143 49.9585 51.9636 50.2808C50.1129 50.603 48.3456 51.2946 46.7669 52.3145C45.1882 53.3345 43.8303 54.6618 42.7742 56.2178L42.7603 56.2383L42.7458 56.2585L20.6969 87.0676C20.6963 87.0685 20.6956 87.0695 20.695 87.0704C18.4459 90.2427 17.5393 94.1758 18.1726 98.0132C18.8059 101.85 20.9274 105.28 24.0746 107.558C24.0758 107.559 24.077 107.559 24.0781 107.56L86.9525 152.555L90.2145 154.889L86.3871 156.09L12.6059 179.23Z" stroke="url(#paint0_linear_1_1325)" stroke-width="4"/>
<defs>
<linearGradient id="paint0_linear_1_1325" x1="324.264" y1="110.727" x2="-39.2539" y2="167.643" gradientUnits="userSpaceOnUse">
<stop offset="0.205" stop-color="white"/>
<stop offset="1" stop-color="white" stop-opacity="0"/>
</linearGradient>
</defs>
</svg>
