<svg width="147" height="49" viewBox="0 0 147 49" fill="none" xmlns="http://www.w3.org/2000/svg">
<path d="M15.008 17.3433C14.8587 17.5887 14.704 17.77 14.544 17.8873C14.3947 17.994 14.1973 18.0473 13.952 18.0473C13.7173 18.0473 13.4613 17.9673 13.184 17.8073C12.9173 17.6367 12.6027 17.4553 12.24 17.2633C11.8773 17.0713 11.4613 16.8953 10.992 16.7353C10.5227 16.5647 9.97333 16.4793 9.344 16.4793C8.23467 16.4793 7.40267 16.73 6.848 17.2313C6.29333 17.722 6.016 18.3673 6.016 19.1673C6.016 19.6793 6.16533 20.106 6.464 20.4473C6.77333 20.778 7.17333 21.066 7.664 21.3113C8.16533 21.5567 8.73067 21.7753 9.36 21.9673C9.98933 22.1593 10.6347 22.3727 11.296 22.6073C11.9573 22.8313 12.6027 23.098 13.232 23.4073C13.8613 23.7167 14.4213 24.106 14.912 24.5753C15.4133 25.0447 15.8133 25.6207 16.112 26.3033C16.4213 26.9753 16.576 27.7967 16.576 28.7673C16.576 29.8233 16.3893 30.8153 16.016 31.7433C15.6533 32.6607 15.1253 33.466 14.432 34.1593C13.7387 34.842 12.88 35.3807 11.856 35.7753C10.8427 36.17 9.69067 36.3673 8.4 36.3673C7.664 36.3673 6.928 36.2927 6.192 36.1433C5.46667 35.994 4.76267 35.786 4.08 35.5193C3.408 35.2527 2.77333 34.9327 2.176 34.5593C1.57867 34.186 1.056 33.77 0.608 33.3113L2.016 31.0393C2.13333 30.8687 2.288 30.73 2.48 30.6233C2.672 30.506 2.87467 30.4473 3.088 30.4473C3.376 30.4473 3.68 30.554 4 30.7673C4.32 30.9807 4.688 31.2153 5.104 31.4713C5.52 31.7273 6 31.962 6.544 32.1753C7.09867 32.3887 7.76 32.4953 8.528 32.4953C9.648 32.4953 10.512 32.2393 11.12 31.7273C11.7387 31.2153 12.048 30.4527 12.048 29.4393C12.048 28.8527 11.8933 28.378 11.584 28.0153C11.2853 27.6527 10.8907 27.3487 10.4 27.1033C9.90933 26.858 9.34933 26.65 8.72 26.4793C8.09067 26.298 7.44533 26.1007 6.784 25.8873C6.12267 25.674 5.47733 25.418 4.848 25.1193C4.21867 24.8207 3.65867 24.426 3.168 23.9353C2.67733 23.4447 2.27733 22.8367 1.968 22.1113C1.66933 21.386 1.52 20.4847 1.52 19.4073C1.52 18.5433 1.69067 17.706 2.032 16.8953C2.37333 16.0847 2.87467 15.3647 3.536 14.7353C4.19733 14.106 5.008 13.5993 5.968 13.2153C6.93867 12.8313 8.048 12.6393 9.296 12.6393C10.6933 12.6393 11.984 12.858 13.168 13.2953C14.3627 13.722 15.3707 14.3193 16.192 15.0873L15.008 17.3433ZM26.8578 19.3593C28.0951 19.3593 29.2204 19.5567 30.2338 19.9513C31.2471 20.346 32.1164 20.9113 32.8418 21.6473C33.5671 22.3727 34.1271 23.258 34.5218 24.3033C34.9164 25.3487 35.1138 26.5273 35.1138 27.8393C35.1138 29.1513 34.9164 30.3353 34.5218 31.3913C34.1271 32.4367 33.5671 33.3273 32.8418 34.0633C32.1164 34.7993 31.2471 35.3647 30.2338 35.7593C29.2204 36.154 28.0951 36.3513 26.8578 36.3513C25.6098 36.3513 24.4738 36.154 23.4498 35.7593C22.4364 35.3647 21.5671 34.7993 20.8418 34.0633C20.1164 33.3273 19.5511 32.4367 19.1458 31.3913C18.7511 30.3353 18.5538 29.1513 18.5538 27.8393C18.5538 26.5273 18.7511 25.3487 19.1458 24.3033C19.5511 23.258 20.1164 22.3727 20.8418 21.6473C21.5671 20.9113 22.4364 20.346 23.4498 19.9513C24.4738 19.5567 25.6098 19.3593 26.8578 19.3593ZM26.8578 33.0393C28.1164 33.0393 29.0498 32.6073 29.6578 31.7433C30.2658 30.8687 30.5698 29.5727 30.5698 27.8553C30.5698 26.1487 30.2658 24.8633 29.6578 23.9993C29.0498 23.1247 28.1164 22.6873 26.8578 22.6873C25.5671 22.6873 24.6178 23.1247 24.0098 23.9993C23.4018 24.8633 23.0978 26.1487 23.0978 27.8553C23.0978 29.5727 23.4018 30.8687 24.0098 31.7433C24.6178 32.6073 25.5671 33.0393 26.8578 33.0393ZM52.3665 19.6153V36.1113H49.6465C49.0812 36.1113 48.7185 35.8553 48.5585 35.3433L48.2705 34.1913C47.9398 34.5113 47.5985 34.8047 47.2465 35.0713C46.8945 35.338 46.5158 35.5673 46.1105 35.7593C45.7158 35.9513 45.2838 36.1007 44.8145 36.2073C44.3558 36.314 43.8545 36.3673 43.3105 36.3673C42.4145 36.3673 41.6145 36.2127 40.9105 35.9033C40.2172 35.594 39.6358 35.162 39.1665 34.6073C38.6972 34.0527 38.3398 33.3913 38.0945 32.6233C37.8492 31.8553 37.7265 31.0127 37.7265 30.0953V19.6153H42.1425V30.0953C42.1425 31.0127 42.3505 31.7273 42.7665 32.2393C43.1932 32.7407 43.8225 32.9913 44.6545 32.9913C45.2732 32.9913 45.8545 32.858 46.3985 32.5913C46.9425 32.314 47.4598 31.9407 47.9505 31.4713V19.6153H52.3665ZM60.4595 12.2553V36.1113H56.0435V12.2553H60.4595ZM77.258 17.3433C77.1087 17.5887 76.954 17.77 76.794 17.8873C76.6447 17.994 76.4473 18.0473 76.202 18.0473C75.9673 18.0473 75.7113 17.9673 75.434 17.8073C75.1673 17.6367 74.8527 17.4553 74.49 17.2633C74.1273 17.0713 73.7113 16.8953 73.242 16.7353C72.7727 16.5647 72.2233 16.4793 71.594 16.4793C70.4847 16.4793 69.6527 16.73 69.098 17.2313C68.5433 17.722 68.266 18.3673 68.266 19.1673C68.266 19.6793 68.4153 20.106 68.714 20.4473C69.0233 20.778 69.4233 21.066 69.914 21.3113C70.4153 21.5567 70.9807 21.7753 71.61 21.9673C72.2393 22.1593 72.8847 22.3727 73.546 22.6073C74.2073 22.8313 74.8527 23.098 75.482 23.4073C76.1113 23.7167 76.6713 24.106 77.162 24.5753C77.6633 25.0447 78.0633 25.6207 78.362 26.3033C78.6713 26.9753 78.826 27.7967 78.826 28.7673C78.826 29.8233 78.6393 30.8153 78.266 31.7433C77.9033 32.6607 77.3753 33.466 76.682 34.1593C75.9887 34.842 75.13 35.3807 74.106 35.7753C73.0927 36.17 71.9407 36.3673 70.65 36.3673C69.914 36.3673 69.178 36.2927 68.442 36.1433C67.7167 35.994 67.0127 35.786 66.33 35.5193C65.658 35.2527 65.0233 34.9327 64.426 34.5593C63.8287 34.186 63.306 33.77 62.858 33.3113L64.266 31.0393C64.3833 30.8687 64.538 30.73 64.73 30.6233C64.922 30.506 65.1247 30.4473 65.338 30.4473C65.626 30.4473 65.93 30.554 66.25 30.7673C66.57 30.9807 66.938 31.2153 67.354 31.4713C67.77 31.7273 68.25 31.962 68.794 32.1753C69.3487 32.3887 70.01 32.4953 70.778 32.4953C71.898 32.4953 72.762 32.2393 73.37 31.7273C73.9887 31.2153 74.298 30.4527 74.298 29.4393C74.298 28.8527 74.1433 28.378 73.834 28.0153C73.5353 27.6527 73.1407 27.3487 72.65 27.1033C72.1593 26.858 71.5993 26.65 70.97 26.4793C70.3407 26.298 69.6953 26.1007 69.034 25.8873C68.3727 25.674 67.7273 25.418 67.098 25.1193C66.4687 24.8207 65.9087 24.426 65.418 23.9353C64.9273 23.4447 64.5273 22.8367 64.218 22.1113C63.9193 21.386 63.77 20.4847 63.77 19.4073C63.77 18.5433 63.9407 17.706 64.282 16.8953C64.6233 16.0847 65.1247 15.3647 65.786 14.7353C66.4473 14.106 67.258 13.5993 68.218 13.2153C69.1887 12.8313 70.298 12.6393 71.546 12.6393C72.9433 12.6393 74.234 12.858 75.418 13.2953C76.6127 13.722 77.6207 14.3193 78.442 15.0873L77.258 17.3433ZM85.8338 31.7593C86.2498 32.2393 86.6978 32.5753 87.1778 32.7673C87.6684 32.9593 88.1911 33.0553 88.7458 33.0553C89.2791 33.0553 89.7644 32.954 90.2018 32.7513C90.6391 32.5487 91.0124 32.234 91.3218 31.8073C91.6418 31.37 91.8871 30.8153 92.0578 30.1433C92.2284 29.4713 92.3138 28.6713 92.3138 27.7433C92.3138 26.826 92.2391 26.0473 92.0898 25.4073C91.9511 24.7673 91.7484 24.25 91.4818 23.8553C91.2258 23.4607 90.9111 23.178 90.5378 23.0073C90.1644 22.826 89.7484 22.7353 89.2898 22.7353C88.5111 22.7353 87.8551 22.89 87.3218 23.1993C86.7991 23.498 86.3031 23.9407 85.8338 24.5273V31.7593ZM85.5778 21.7753C85.9084 21.4127 86.2604 21.082 86.6338 20.7833C87.0071 20.474 87.4071 20.2127 87.8338 19.9993C88.2604 19.7753 88.7191 19.6047 89.2098 19.4873C89.7004 19.3593 90.2338 19.2953 90.8098 19.2953C91.6951 19.2953 92.5058 19.4873 93.2418 19.8713C93.9884 20.2447 94.6284 20.794 95.1618 21.5193C95.6951 22.234 96.1111 23.114 96.4097 24.1593C96.7084 25.2047 96.8577 26.3993 96.8577 27.7433C96.8577 28.9807 96.6871 30.1273 96.3458 31.1833C96.0151 32.2287 95.5404 33.1353 94.9218 33.9033C94.3031 34.6713 93.5564 35.274 92.6818 35.7113C91.8178 36.138 90.8524 36.3513 89.7858 36.3513C88.8898 36.3513 88.1271 36.218 87.4978 35.9513C86.8791 35.6847 86.3244 35.322 85.8338 34.8633V41.4393H81.4178V19.6153H84.1378C84.6924 19.6153 85.0604 19.8713 85.2418 20.3833L85.5778 21.7753ZM108.323 29.2153C107.246 29.2687 106.35 29.3647 105.635 29.5033C104.92 29.6313 104.35 29.802 103.923 30.0153C103.507 30.2287 103.208 30.474 103.027 30.7513C102.856 31.018 102.771 31.3113 102.771 31.6313C102.771 32.2713 102.947 32.7247 103.299 32.9913C103.662 33.258 104.163 33.3913 104.803 33.3913C105.539 33.3913 106.174 33.2633 106.707 33.0073C107.251 32.7407 107.79 32.33 108.323 31.7753V29.2153ZM99.331 21.9033C100.302 21.0287 101.374 20.378 102.547 19.9513C103.72 19.514 104.99 19.2953 106.355 19.2953C107.336 19.2953 108.211 19.4553 108.979 19.7753C109.758 20.0953 110.414 20.5433 110.947 21.1193C111.491 21.6847 111.907 22.362 112.195 23.1513C112.483 23.9407 112.627 24.8047 112.627 25.7433V36.1113H110.611C110.195 36.1113 109.875 36.0527 109.651 35.9353C109.438 35.818 109.262 35.5727 109.123 35.1993L108.771 34.1433C108.355 34.506 107.95 34.826 107.555 35.1033C107.171 35.3807 106.771 35.6153 106.355 35.8073C105.939 35.9887 105.491 36.1273 105.011 36.2233C104.542 36.3193 104.014 36.3673 103.427 36.3673C102.702 36.3673 102.04 36.2713 101.443 36.0793C100.846 35.8873 100.328 35.6047 99.891 35.2313C99.4643 34.8473 99.1337 34.3727 98.899 33.8073C98.6643 33.242 98.547 32.5913 98.547 31.8553C98.547 31.2473 98.7017 30.6393 99.011 30.0313C99.3203 29.4233 99.8483 28.874 100.595 28.3833C101.352 27.882 102.355 27.4713 103.603 27.1513C104.862 26.8207 106.435 26.634 108.323 26.5913V25.7433C108.323 24.7087 108.104 23.9513 107.667 23.4713C107.23 22.9807 106.6 22.7353 105.779 22.7353C105.171 22.7353 104.664 22.81 104.259 22.9593C103.854 23.098 103.496 23.2527 103.187 23.4233C102.888 23.5833 102.606 23.738 102.339 23.8873C102.072 24.026 101.763 24.0953 101.411 24.0953C101.102 24.0953 100.84 24.0207 100.627 23.8713C100.424 23.7113 100.254 23.5247 100.115 23.3113L99.331 21.9033ZM128.042 23.2953C127.914 23.466 127.786 23.5993 127.658 23.6953C127.53 23.7807 127.349 23.8233 127.114 23.8233C126.901 23.8233 126.693 23.7647 126.49 23.6473C126.298 23.5193 126.074 23.386 125.818 23.2473C125.562 23.098 125.258 22.9647 124.906 22.8473C124.554 22.7193 124.117 22.6553 123.594 22.6553C122.933 22.6553 122.357 22.778 121.866 23.0233C121.386 23.258 120.986 23.5993 120.666 24.0473C120.346 24.4953 120.106 25.0393 119.946 25.6793C119.797 26.3193 119.722 27.0393 119.722 27.8393C119.722 29.5247 120.058 30.8153 120.73 31.7113C121.413 32.6073 122.341 33.0553 123.514 33.0553C123.919 33.0553 124.266 33.0233 124.554 32.9593C124.853 32.8847 125.109 32.794 125.322 32.6873C125.546 32.5807 125.738 32.4633 125.898 32.3353C126.058 32.2073 126.207 32.09 126.346 31.9833C126.495 31.8767 126.639 31.7913 126.778 31.7273C126.927 31.6527 127.093 31.6153 127.274 31.6153C127.615 31.6153 127.882 31.7433 128.074 31.9993L129.338 33.5993C128.869 34.1433 128.367 34.5967 127.834 34.9593C127.301 35.3113 126.746 35.594 126.17 35.8073C125.605 36.01 125.029 36.1487 124.442 36.2233C123.855 36.3087 123.274 36.3513 122.698 36.3513C121.685 36.3513 120.725 36.1647 119.818 35.7913C118.911 35.4073 118.117 34.8527 117.434 34.1273C116.751 33.402 116.207 32.5113 115.802 31.4553C115.407 30.3993 115.21 29.194 115.21 27.8393C115.21 26.634 115.386 25.514 115.738 24.4793C116.09 23.4447 116.607 22.5487 117.29 21.7913C117.973 21.034 118.815 20.442 119.818 20.0153C120.831 19.578 121.999 19.3593 123.322 19.3593C124.581 19.3593 125.685 19.562 126.634 19.9673C127.583 20.3727 128.437 20.9593 129.194 21.7273L128.042 23.2953ZM141.757 25.9193C141.757 25.4607 141.693 25.0233 141.565 24.6073C141.447 24.1913 141.255 23.8233 140.989 23.5033C140.722 23.1833 140.386 22.9327 139.981 22.7513C139.575 22.5593 139.09 22.4633 138.525 22.4633C137.469 22.4633 136.642 22.762 136.045 23.3593C135.447 23.9567 135.058 24.81 134.877 25.9193H141.757ZM134.813 28.5433C134.951 30.09 135.389 31.2207 136.125 31.9353C136.871 32.65 137.842 33.0073 139.037 33.0073C139.645 33.0073 140.167 32.938 140.605 32.7993C141.053 32.65 141.442 32.49 141.773 32.3193C142.114 32.138 142.418 31.978 142.685 31.8393C142.962 31.69 143.234 31.6153 143.501 31.6153C143.842 31.6153 144.109 31.7433 144.301 31.9993L145.581 33.5993C145.111 34.1433 144.594 34.5967 144.029 34.9593C143.463 35.3113 142.877 35.594 142.269 35.8073C141.661 36.01 141.047 36.1487 140.429 36.2233C139.81 36.3087 139.213 36.3513 138.637 36.3513C137.485 36.3513 136.407 36.1647 135.405 35.7913C134.413 35.4073 133.543 34.8473 132.797 34.1113C132.061 33.3647 131.479 32.442 131.053 31.3433C130.626 30.2447 130.413 28.97 130.413 27.5193C130.413 26.3993 130.594 25.3433 130.957 24.3513C131.33 23.3593 131.863 22.4953 132.557 21.7593C133.25 21.0233 134.093 20.442 135.085 20.0153C136.077 19.578 137.197 19.3593 138.445 19.3593C139.501 19.3593 140.471 19.53 141.357 19.8713C142.253 20.202 143.021 20.6873 143.661 21.3273C144.311 21.9673 144.813 22.7567 145.165 23.6953C145.527 24.6233 145.709 25.6847 145.709 26.8793C145.709 27.21 145.693 27.482 145.661 27.6953C145.629 27.9087 145.575 28.0793 145.501 28.2073C145.426 28.3353 145.325 28.426 145.197 28.4793C145.069 28.522 144.903 28.5433 144.701 28.5433H134.813Z" fill="#15355E"/>
</svg>
